<?xml version="1.0" standalone="no"?>
<!DOCTYPE svg PUBLIC "-//W3C//DTD SVG 20010904//EN"
 "http://www.w3.org/TR/2001/REC-SVG-20010904/DTD/svg10.dtd">
<svg version="1.0" xmlns="http://www.w3.org/2000/svg"
 width="290.000000pt" height="174.000000pt" viewBox="0 0 290.000000 174.000000"
 preserveAspectRatio="xMidYMid meet">

<g transform="translate(0.000000,174.000000) scale(0.100000,-0.100000)"
fill="#000000" stroke="none">
<path d="M351 1736 c2 -2 182 -111 399 -241 217 -130 398 -239 403 -242 4 -2
7 106 7 241 l0 246 -407 0 c-223 0 -404 -2 -402 -4z"/>
<path d="M1280 1390 l0 -350 -640 0 -640 0 0 -170 0 -170 640 0 640 0 0 -350
0 -350 170 0 170 0 0 350 0 350 640 0 640 0 0 170 0 170 -640 0 -640 0 0 350
0 350 -170 0 -170 0 0 -350z"/>
<path d="M1740 1494 c0 -135 3 -243 8 -241 4 3 185 112 402 242 217 130 397
239 399 241 2 2 -179 4 -402 4 l-407 0 0 -246z"/>
<path d="M2210 1460 c-256 -154 -466 -284 -468 -290 -2 -6 32 -10 91 -10 l95
0 484 290 483 290 -110 0 -110 -1 -465 -279z"/>
<path d="M0 1669 l1 -64 372 -222 372 -223 109 0 108 0 -468 281 c-258 155
-475 283 -481 286 -10 4 -13 -12 -13 -58z"/>
<path d="M0 1345 l0 -185 313 0 312 0 -308 185 c-170 102 -310 185 -313 185
-2 0 -4 -83 -4 -185z"/>
<path d="M2580 1344 l-305 -184 313 0 312 0 0 185 c0 102 -3 185 -7 184 -5 0
-145 -84 -313 -185z"/>
<path d="M0 395 c0 -102 2 -185 4 -185 3 0 143 83 313 185 l308 185 -312 0
-313 0 0 -185z"/>
<path d="M485 289 l-480 -289 108 0 109 0 469 281 c258 155 469 286 469 290 0
5 -44 9 -97 8 l-98 -1 -480 -289z"/>
<path d="M2406 299 c258 -155 475 -283 482 -286 9 -4 12 12 12 58 l-1 64 -372
223 -372 222 -109 0 -108 0 468 -281z"/>
<path d="M2583 395 c170 -102 310 -185 313 -185 2 0 4 83 4 185 l0 185 -312 0
-313 0 308 -185z"/>
<path d="M752 247 l-402 -242 402 -3 c220 -1 403 -1 405 1 2 2 2 112 1 245
l-3 240 -403 -241z"/>
<path d="M1740 246 l0 -246 407 0 c223 0 404 2 402 4 -2 2 -182 111 -399 241
-217 130 -398 239 -402 242 -5 2 -8 -106 -8 -241z"/>
</g>
</svg>
